PathFileType	4	(X/Y/Z)	RBDS027\RBDS027runT35.trc
DataRate	CameraRate	NumFrames	NumMarkers	Units	OrigDataRate	OrigDataStartFrame	OrigNumFrames
150.000000	150.000000	4	33	mm	150.000000	3375	4500
Frame#	Time	L.ASIS			L.Heel.Bottom			L.Heel.Lateral			L.Heel.Top			L.Iliac.Crest			L.MT1			L.MT5			L.PSIS			L.Shank.Bottom.Lateral			L.Shank.Bottom.Medial			L.Shank.Top.Lateral			L.Shank.Top.Medial			L.Thigh.Bottom.Lateral			L.Thigh.Bottom.Medial			L.Thigh.Top.Lateral			L.Thigh.Top.Medial			R.ASIS			R.ASY			R.Heel.Bottom			R.Heel.Lateral			R.Heel.Top			R.Iliac.Crest			R.MT1			R.MT5			R.PSIS			R.Shank.Bottom.Lateral			R.Shank.Bottom.Medial			R.Shank.Top.Lateral			R.Shank.Top.Medial			R.Thigh.Bottom.Lateral			R.Thigh.Bottom.Medial			R.Thigh.Top.Lateral			R.Thigh.Top.Medial			
		X1	Y1	Z1	X2	Y2	Z2	X3	Y3	Z3	X4	Y4	Z4	X5	Y5	Z5	X6	Y6	Z6	X7	Y7	Z7	X8	Y8	Z8	X9	Y9	Z9	X10	Y10	Z10	X11	Y11	Z11	X12	Y12	Z12	X13	Y13	Z13	X14	Y14	Z14	X15	Y15	Z15	X16	Y16	Z16	X17	Y17	Z17	X18	Y18	Z18	X19	Y19	Z19	X20	Y20	Z20	X21	Y21	Z21	X22	Y22	Z22	X23	Y23	Z23	X24	Y24	Z24	X25	Y25	Z25	X26	Y26	Z26	X27	Y27	Z27	X28	Y28	Z28	X29	Y29	Z29	X30	Y30	Z30	X31	Y31	Z31	X32	Y32	Z32	X33	Y33	Z33	

3376	22.5	2208.771835134639	899.346912505471	912.0555937124047	2336.540735297433	9.242933709286046	995.0352281308373	2355.405447635669	34.92485909410793	947.1468348099031	2328.313536746476	58.11618866935967	990.7292124339185	2156.107657107949	979.6327870755071	879.209212448465	2524.906979620665	118.7348581957706	1017.220021779319	2494.368853859056	84.3713641512778	913.6668837718531	2056.694768883933	940.5930708468468	998.7288760917879	2340.321756871295	156.1923237726461	923.6821806098636	2309.438355484107	147.6857518042282	969.5887155106548	2297.624460428207	221.7566063461411	908.9886451262159	2270.570370370391	217.701576541486	956.0166647889162	2226.280720020839	551.4760430822718	874.3059645972403	2178.95278278639	531.125079040439	923.5137697615057	2168.735076844328	644.0641852505709	859.489555818896	2123.993636227127	625.5321293639489	907.3991150704218	2227.95972089584	891.9168688257471	1167.308093494753	1609.134444072321	305.3443265098649	1137.523594124323	1550.463085638313	479.1218745233024	1098.613228111583	1564.823909075683	455.9708602292918	1146.735633082729	1594.66576726069	469.7833617174276	1103.136936666116	2199.145316809975	991.0093998229113	1180.805731814954	1561.745046621851	263.7071266473637	1089.027402384516	1553.151502450437	312.5400846815619	1195.924660631572	2069.800476568973	947.0964063536982	1096.954194741205	1670.410141731589	438.8855421397941	1164.211886410255	1670.031224821802	466.387574019809	1121.245880021794	1747.884963961375	468.902144159848	1180.443837329998	1742.723329278161	498.0931419451082	1136.465585652929	2030.84511637087	554.618705432604	1201.617197816201	1977.979251204711	578.1942933660818	1156.091488466658	2057.624435929496	659.2316133004891	1219.173856278251	2006.745888350127	681.9107511633812	1176.26126015087	
3377	22.50666666666667	2206.856545430406	896.31928194356	911.6363488411935	2323.34162324632	8.809812214823101	997.9401499518882	2342.900195135004	33.80549984455969	950.0193488526473	2317.792322906176	57.67668728503785	994.2950927660189	2155.389322452797	976.2864847092692	879.4287572276161	2515.954783491834	108.6625129595773	1017.714190825134	2482.606033210282	76.58590018006416	914.5249845181743	2054.804093523643	934.9357004995682	1000.074139730669	2332.588898244326	151.4660422013273	926.5253472395684	2301.876910282392	144.0701015181411	972.7309088459084	2291.722524965265	218.1716020630373	911.7636419450574	2264.866079259974	214.9830440865198	959.008694402455	2226.943821277731	548.9709780401388	875.7926164036616	2179.383947075284	527.891795098021	924.4250703913207	2168.333866937864	640.9147021973055	860.8126946320617	2123.616448561242	621.8471717595553	908.4986711321632	2227.875627960684	887.5279168678837	1167.178757223715	1609.321837240512	317.5575702698054	1136.111884228691	1563.27421578877	496.3472044781921	1100.758063637192	1575.899387669708	471.0572380697627	1148.349060040478	1606.76755198399	483.6777258637844	1105.205193340238	2197.079475797864	986.3779020074272	1181.52750364045	1559.070565585649	280.3094996309126	1086.534123416517	1553.668152327894	327.7332738108655	1194.605836164569	2068.722418041281	940.1334802046638	1097.9013617079	1679.301939348592	446.7740385287325	1165.447243044439	1680.323018361351	474.9303005638492	1122.875295270585	1758.536831585152	471.8965582721991	1181.673975982234	1754.815309297217	502.0581306352849	1138.265401842003	2038.560561944332	544.3146484549671	1201.958904008093	1984.996756726135	566.242860861003	1156.33726684553	2062.155169667379	649.7175361062103	1219.251980292611	2010.505248028301	670.9566378703629	1176.572911250159	
3378	22.51333333333334	2204.596469316886	892.9467428567103	911.1758539420796	2307.278073086043	8.768476482294156	1000.600877627986	2327.819975411986	33.0670755266482	952.7581507568472	2304.866750886839	57.61215325865958	997.7921067922947	2153.980757194458	972.427426966097	879.5843042443147	2504.798342159012	97.19140697885534	1018.5936710923	2468.595707721445	68.2392497089438	915.5552355502673	2052.745636196485	928.8115415482611	1001.744336652123	2323.35862629103	146.6315320497402	929.4010452799969	2292.648881306474	140.598973400307	975.7692436424246	2284.849273894335	214.711044697516	914.4092400753373	2258.070817127427	212.5930028178931	961.7813993635551	2227.817725021958	546.2530947583148	877.12057649094	2180.097192050901	524.33257188634	925.1858857793246	2167.983802300787	637.4451419178582	862.0842543378013	2123.350671313051	617.7550711003856	909.5584238128345	2227.808390695502	882.5680578326867	1167.001887893194	1611.524375917292	329.3206953014113	1134.807107379274	1577.977605000405	512.1263900297776	1102.477099180684	1588.680473765128	484.9397157784131	1149.58111685183	1620.584903535802	496.3238092240804	1106.956702509655	2195.507262148708	980.9152353283815	1182.335532245649	1558.935059557599	296.3574350949679	1084.116702638385	1556.191517740262	342.4047342558305	1193.211101586177	2067.667829139356	932.5841616920256	1099.124504682464	1689.625568036939	453.9307768095094	1166.505755744914	1692.118914630817	482.5967981587028	1124.308693320942	1770.235245655771	474.2578857540021	1182.869788512928	1768.067339466736	505.1924632182719	1139.930977866944	2045.994549829822	534.1266823036428	1202.304479028268	1992.032348955637	554.2249219191214	1156.315760634236	2066.402377723121	640.2689584622568	1219.135532378292	2014.254112413767	659.9415298635502	1176.413088893814	
3379	22.52	2201.995305443177	889.2028162698971	910.6914113782144	2288.873228152553	9.138101993136619	1002.898234928756	2310.613251752531	32.77929820487325	955.2468523490795	2289.861103075832	57.92209855483839	1001.061857261167	2151.8216352036	967.9386771009223	879.6939003552482	2491.571790053195	85.04710777663223	1019.846778601183	2452.654891461506	59.92248624336248	916.7193047810791	2050.509681228377	922.3036096775611	1003.695887731338	2312.814225466299	141.9631923501364	932.1738091779059	2281.929359973644	137.5196265746067	978.5382116001794	2277.151398126518	211.5598921838942	916.7706696004177	2250.326762507392	210.700798467839	964.1595016294884	2228.713218060887	543.2845451976583	878.1478932161402	2180.967879391459	520.4709553014054	925.7505784084127	2167.545248613861	633.6496448542176	863.211630216791	2123.099954852858	613.2937417289457	910.5495084919429	2227.700433459512	877.1214340016755	1166.781636490815	1615.757561317423	340.471631720303	1133.688001260666	1594.193729403461	526.2079539552179	1103.685289617565	1602.873983324513	497.4573192337423	1150.376284408492	1635.775814517139	507.5589133319535	1108.291813603985	2194.419350820717	974.7159706583974	1183.198152242283	1561.369674638383	311.5179854045641	1081.926087336391	1560.754084157819	356.3607404192837	1191.842955206894	2066.585694724727	924.6129970873786	1100.589981163916	1701.235092505138	460.3150588558896	1167.337378207532	1705.242397981031	489.3135493550516	1125.480254291669	1782.848004797029	476.0272607317305	1183.975809303957	1782.317231142909	507.5004064926687	1141.370261198426	2053.191278411463	524.1836638026322	1202.675473550101	1999.118302366544	542.3132479893065	1156.093871668384	2070.424482601753	631.0006485970119	1218.895077856509	2018.016803374688	649.0111388392326	1175.892615162033	
